Coordinates
version=1
nRows=13
nColumns=40
inDegrees=yes

Units are S.I. units (second, meters, Newtons, ...)
If the header above contains a line with 'inDegrees', this indicates whether rotational values are in degrees (yes) or radians (no).

endheader
time	pelvis_tilt	pelvis_list	pelvis_rotation	pelvis_tx	pelvis_ty	pelvis_tz	hip_flexion_r	hip_adduction_r	hip_rotation_r	knee_angle_r	knee_angle_r_beta	ankle_angle_r	subtalar_angle_r	mtp_angle_r	hip_flexion_l	hip_adduction_l	hip_rotation_l	knee_angle_l	knee_angle_l_beta	ankle_angle_l	subtalar_angle_l	mtp_angle_l	lumbar_extension	lumbar_bending	lumbar_rotation	arm_flex_r	arm_add_r	arm_rot_r	elbow_flex_r	pro_sup_r	wrist_flex_r	wrist_dev_r	arm_flex_l	arm_add_l	arm_rot_l	elbow_flex_l	pro_sup_l	wrist_flex_l	wrist_dev_l
      4.61500000	     -0.36405268	     -1.60418915	      1.84850632	     -0.33819207	      0.96746322	     -0.99406016	     41.50291664	     -4.30572540	      3.99083586	     29.42162256	      0.51350418	      1.75604267	      0.00000000	      0.00000000	     30.39170525	     -0.42627110	     -2.84320056	     53.88836610	      0.94052942	     12.18999727	      0.00000000	      0.00000000	    -10.90375239	     -1.90293875	     -5.31671694	     89.85679792	     -6.21922357	     50.47732841	     48.05743399	     84.03291609	      0.00000000	      0.00000000	     89.93141882	    -14.27228628	     50.69923198	     49.63377744	     87.06266213	      0.00000000	      0.00000000
      4.62000000	     -0.42980146	     -1.66016377	      1.83827097	     -0.33795551	      0.96855795	     -0.99405027	     41.38482332	     -4.27374641	      4.03053309	     29.47153426	      0.51437531	      1.74022255	      0.00000000	      0.00000000	     30.31212025	     -0.46565329	     -2.79368033	     53.60857672	      0.93564617	     12.13087938	      0.00000000	      0.00000000	    -10.78698910	     -1.84055278	     -5.33495083	     89.85584638	     -6.23256231	     50.47884715	     48.05727369	     84.03227749	      0.00000000	      0.00000000	     89.93137361	    -14.25526621	     50.70328770	     49.62347001	     87.06306665	      0.00000000	      0.00000000
      4.62500000	     -0.46314425	     -1.72506503	      1.77464345	     -0.33766968	      0.96984222	     -0.99401888	     41.22179025	     -4.18574259	      4.08327797	     29.53681542	      0.51551468	      1.72857983	      0.00000000	      0.00000000	     30.14186606	     -0.50223609	     -2.69458081	     53.20682859	      0.92863434	     11.98567523	      0.00000000	      0.00000000	    -10.69955713	     -1.76104884	     -5.28052749	     89.85682177	     -6.22850970	     50.43601890	     48.11478312	     84.02750156	      0.00000000	      0.00000000	     89.93091903	    -14.23669748	     50.74668341	     49.58074527	     87.05168050	      0.00000000	      0.00000000
      4.63000000	     -0.51821350	     -1.73084656	      1.74830808	     -0.33744896	      0.97092957	     -0.99407526	     41.09484081	     -4.20680609	      4.08575851	     29.56052337	      0.51592846	      1.73391081	      0.00000000	      0.00000000	     30.13137084	     -0.50925821	     -2.70362487	     53.13218324	      0.92733154	     11.95864840	      0.00000000	      0.00000000	    -10.61483213	     -1.74310431	     -5.28961363	     89.85710931	     -6.24077820	     50.40488933	     48.12665142	     84.02535846	      0.00000000	      0.00000000	     89.93026687	    -14.23887427	     50.71886139	     49.59158106	     87.04956816	      0.00000000	      0.00000000
      4.63500000	     -0.52354835	     -1.81163058	      1.74570293	     -0.33713691	      0.97237631	     -0.99405193	     40.88688341	     -4.14385949	      4.10872570	     29.61185559	      0.51682438	      1.67567412	      0.00000000	      0.00000000	     29.85338939	     -0.57542699	     -2.68377947	     52.53788172	      0.91695902	     11.70168548	      0.00000000	      0.00000000	    -10.55538513	     -1.63736083	     -5.27046452	     89.85464474	     -6.28330053	     50.47621973	     48.13738938	     84.02690315	      0.00000000	      0.00000000	     89.93016045	    -14.21146550	     50.86123811	     49.54732953	     87.06027192	      0.00000000	      0.00000000
      4.64000000	     -0.46317563	     -1.82508917	      1.64609902	     -0.33656122	      0.97396411	     -0.99411251	     40.57744952	     -4.10792404	      4.16431964	     29.59631902	      0.51655321	      1.61276718	      0.00000000	      0.00000000	     29.53146950	     -0.58101467	     -2.65704760	     52.09717248	      0.90926719	     11.47488878	      0.00000000	      0.00000000	    -10.56432031	     -1.60393842	     -5.14697156	     89.85275737	     -6.35774536	     50.74433601	     48.07918067	     84.03984650	      0.00000000	      0.00000000	     89.92967728	    -14.20357542	     51.04050938	     49.52811119	     87.07399308	      0.00000000	      0.00000000
      4.64500000	     -0.45606266	     -1.82063404	      1.59540674	     -0.33629800	      0.97518156	     -0.99413074	     40.34813332	     -4.10563004	      4.23851554	     29.55655157	      0.51585914	      1.45170729	      0.00000000	      0.00000000	     29.32914161	     -0.58195323	     -2.69536765	     51.73930111	      0.90302116	     11.28586666	      0.00000000	      0.00000000	    -10.52201931	     -1.58660186	     -5.14260446	     89.85272856	     -6.35859123	     50.73711173	     48.16249620	     84.03628124	      0.00000000	      0.00000000	     89.92941521	    -14.21269083	     51.08439148	     49.48422837	     87.07197868	      0.00000000	      0.00000000
      4.65000000	     -0.33146908	     -1.84060531	      1.61309400	     -0.33618516	      0.97669390	     -0.99406172	     39.98119327	     -4.08997017	      4.32315025	     29.54532484	      0.51566320	      1.48321222	      0.00000000	      0.00000000	     29.00987042	     -0.58241612	     -2.63183145	     51.34229529	      0.89609210	     11.05979396	      0.00000000	      0.00000000	    -10.63347563	     -1.55432170	     -5.13932838	     89.85367316	     -6.41954228	     50.77151689	     48.17982324	     84.03278136	      0.00000000	      0.00000000	     89.92966019	    -14.16853307	     51.13677111	     49.46190242	     87.06612193	      0.00000000	      0.00000000
      4.65500000	     -0.40214144	     -1.84674022	      1.57822309	     -0.33610348	      0.97782896	     -0.99407487	     39.85820202	     -4.09291591	      4.31594768	     29.57042726	      0.51610132	      1.47210743	      0.00000000	      0.00000000	     29.01875589	     -0.59598685	     -2.63816997	     51.27219323	      0.89486859	     11.03253342	      0.00000000	      0.00000000	    -10.55157781	     -1.53708512	     -5.13901906	     89.85242352	     -6.41521356	     50.73889621	     48.19611977	     84.03082548	      0.00000000	      0.00000000	     89.92930329	    -14.16796772	     51.09416231	     49.47532454	     87.06240105	      0.00000000	      0.00000000
      4.66000000	     -0.40369438	     -1.94248680	      1.55555098	     -0.33561795	      0.97905032	     -0.99399033	     39.64487414	     -4.02078950	      4.33556141	     29.61360714	      0.51685495	      1.42136577	      0.00000000	      0.00000000	     28.74620922	     -0.71037199	     -2.65688552	     50.71752313	      0.88518777	     10.75842860	      0.00000000	      0.00000000	    -10.47007131	     -1.43148304	     -5.13082736	     89.84970866	     -6.43368472	     50.87945428	     48.14212717	     84.03927556	      0.00000000	      0.00000000	     89.92873243	    -14.14622869	     51.18530173	     49.40671222	     87.06854127	      0.00000000	      0.00000000
      4.66500000	     -0.29231387	     -1.93701328	      1.48935185	     -0.33527101	      0.98059038	     -0.99391262	     39.29052986	     -4.00323613	      4.38802843	     29.62987071	      0.51713880	      1.33006543	      0.00000000	      0.00000000	     28.38014527	     -0.72033708	     -2.69157244	     50.25640591	      0.87713975	     10.49691900	      0.00000000	      0.00000000	    -10.54864259	     -1.42464728	     -5.06135534	     89.85059798	     -6.45633940	     50.91658256	     48.16446795	     84.03719130	      0.00000000	      0.00000000	     89.92877705	    -14.15189720	     51.34714283	     49.37718954	     87.08777128	      0.00000000	      0.00000000
      4.67000000	     -0.24601022	     -1.90925922	      1.44890926	     -0.33495276	      0.98194176	     -0.99386730	     38.99650197	     -4.02911587	      4.46494883	     29.58741635	      0.51639783	      1.26177153	      0.00000000	      0.00000000	     28.12500931	     -0.71815969	     -2.76409820	     49.87711051	      0.87051980	     10.32417485	      0.00000000	      0.00000000	    -10.56146864	     -1.43110026	     -5.03755394	     89.85018393	     -6.45559104	     50.97508960	     48.14706327	     84.03668786	      0.00000000	      0.00000000	     89.92850723	    -14.14400598	     51.32097343	     49.36991255	     87.08143683	      0.00000000	      0.00000000
      4.67500000	     -0.14603801	     -1.93127932	      1.39187013	     -0.33463537	      0.98337708	     -0.99376712	     38.65650426	     -3.99147851	      4.49816518	     29.58772797	      0.51640327	      1.17551781	      0.00000000	      0.00000000	     27.80824020	     -0.76627127	     -2.81631783	     49.50154932	      0.86396502	     10.10748086	      0.00000000	      0.00000000	    -10.63632674	     -1.42361800	     -5.01573557	     89.84891617	     -6.46712564	     51.02903653	     48.15850753	     84.03294295	      0.00000000	      0.00000000	     89.92851994	    -14.14516599	     51.44734387	     49.34133565	     87.09349893	      0.00000000	      0.00000000
